<?xml version="1.0" encoding="utf-8"?>
<!-- Generator: Adobe Illustrator 24.1.1, SVG Export Plug-In . SVG Version: 6.00 Build 0)  -->
<svg version="1.1" id="Layer_1" xmlns="http://www.w3.org/2000/svg" xmlns:xlink="http://www.w3.org/1999/xlink" x="0px" y="0px"
	 viewBox="0 0 24 24" style="enable-background:new 0 0 24 24;" xml:space="preserve">
<path id="Fingerprint" d="M15.3,23.5c-0.1,0-0.1,0-0.1,0c-1.6-0.4-3.1-1.2-4.3-2.4c-1.6-1.6-2.5-3.7-2.5-6c0-1.9,1.6-3.4,3.5-3.4
	c1.9,0,3.5,1.5,3.5,3.4c0.1,1.3,1.2,2.3,2.5,2.2c1.2-0.1,2.1-1,2.2-2.2c-0.1-4.5-3.9-8-8.3-7.8c-3.2,0-6.1,1.8-7.6,4.6
	c-0.5,1-0.7,2.1-0.7,3.2c0,1.4,0.3,2.8,0.8,4.1c0.1,0.3,0,0.6-0.3,0.7c-0.3,0.1-0.6,0-0.7-0.3l0,0c-0.6-1.4-0.8-3-0.8-4.5
	c0-1.3,0.2-2.5,0.8-3.7C5,8.1,8.3,6,12,6.1c5.1-0.1,9.3,3.9,9.5,9c-0.1,1.9-1.7,3.5-3.7,3.4c-1.8-0.1-3.3-1.5-3.4-3.4
	c0-1.3-1.1-2.3-2.4-2.2c-1.3,0-2.3,1-2.4,2.2c0,1.9,0.8,3.8,2.1,5.2c1,1,2.3,1.8,3.8,2.1c0.1,0,0.3,0.1,0.3,0.3
	c0.1,0.1,0.1,0.3,0.1,0.4C15.8,23.3,15.6,23.5,15.3,23.5z M9.4,23.2c-0.2,0-0.3-0.1-0.4-0.2c-0.9-0.9-1.7-1.9-2.3-3
	c-0.8-1.5-1.2-3.2-1.2-5c0.1-3.5,3-6.3,6.5-6.2c3.5-0.1,6.4,2.7,6.5,6.2c0,0.3-0.3,0.6-0.6,0.6s-0.6-0.3-0.6-0.6
	c-0.1-2.9-2.5-5.1-5.3-5c-2.9-0.1-5.3,2.2-5.3,5c0,1.5,0.3,3.1,1.1,4.4c0.6,1,1.3,2,2.1,2.8c0.1,0.1,0.2,0.3,0.2,0.4
	c0,0.2-0.1,0.3-0.2,0.4C9.7,23.2,9.6,23.2,9.4,23.2z M17.6,21.1c-1.3,0-2.5-0.3-3.6-1c-1.7-1.1-2.7-3-2.7-5c0-0.3,0.3-0.6,0.6-0.6
	s0.6,0.3,0.6,0.6c0,2.7,2.3,4.9,5,4.9c0,0,0.1,0,0.1,0c0.4,0,0.8,0,1.2-0.1c0,0,0.1,0,0.1,0c0.3,0,0.5,0.2,0.6,0.5
	c0,0.2,0,0.3-0.1,0.4c-0.1,0.1-0.2,0.2-0.4,0.2C18.6,21.1,18.1,21.1,17.6,21.1z M2.3,9.4c-0.1,0-0.2,0-0.3-0.1
	C1.8,9.2,1.7,9.1,1.7,8.9c0-0.1,0-0.3,0.1-0.4c1.1-1.6,2.6-2.9,4.3-3.8C7.9,3.8,10,3.3,12,3.3c2,0,4.1,0.5,5.9,1.4
	c1.7,0.9,3.2,2.2,4.3,3.7c0.2,0.3,0.1,0.6-0.2,0.8c-0.3,0.2-0.6,0.1-0.8-0.1c-1-1.4-2.3-2.6-3.9-3.4c-1.7-0.8-3.5-1.3-5.4-1.3
	c-1.9,0-3.7,0.4-5.4,1.3c-1.6,0.8-2.9,2-3.9,3.4C2.6,9.3,2.5,9.4,2.3,9.4z M5.4,3.4C5,3.4,4.8,3.1,4.8,2.8c0-0.2,0.1-0.4,0.3-0.5
	C7.2,1.1,9.6,0.5,12,0.5c2.4,0,4.8,0.6,6.9,1.7c0.3,0.1,0.4,0.5,0.2,0.8c-0.1,0.2-0.3,0.3-0.5,0.3c-0.1,0-0.2,0-0.3-0.1
	c-2-1.1-4.2-1.6-6.4-1.6c-2.2,0-4.4,0.5-6.4,1.6C5.5,3.3,5.5,3.4,5.4,3.4L5.4,3.4z"/>
</svg>
