<?xml version="1.0" encoding="utf-8"?>
<!-- Generator: Adobe Illustrator 24.1.1, SVG Export Plug-In . SVG Version: 6.00 Build 0)  -->
<svg version="1.1" id="Layer_1" xmlns="http://www.w3.org/2000/svg" xmlns:xlink="http://www.w3.org/1999/xlink" x="0px" y="0px"
	 viewBox="0 0 24 24" style="enable-background:new 0 0 24 24;" xml:space="preserve">
<g id="delete" transform="translate(-10.065 -3.889)">
	<path id="Combined_Shape" d="M11.4,26.6c-1.2-1.2-1.2-3.2,0-4.4l6.3-6.4l-6.3-6.2c-1.2-1.2-1.2-3.2,0-4.4c1.2-1.2,3.2-1.2,4.4,0
		c0,0,0,0,0,0l6.3,6.2l6.1-6.2c1.2-1.2,3.2-1.2,4.4,0c0,0,0,0,0,0c1.2,1.2,1.2,3.2,0,4.4l-6.1,6.2l6.3,6.2c1.2,1.2,1.2,3.2,0,4.4
		c-1.2,1.2-3.2,1.2-4.4,0c0,0,0,0,0,0l-6.3-6.2l-6.3,6.4C14.6,27.8,12.6,27.8,11.4,26.6C11.4,26.6,11.4,26.6,11.4,26.6L11.4,26.6z"
		/>
</g>
</svg>
