<?xml version="1.0" encoding="utf-8"?>
<!-- Generator: Adobe Illustrator 24.1.1, SVG Export Plug-In . SVG Version: 6.00 Build 0)  -->
<svg version="1.1" id="Layer_1" xmlns="http://www.w3.org/2000/svg" xmlns:xlink="http://www.w3.org/1999/xlink" x="0px" y="0px"
	 viewBox="0 0 24 24" style="enable-background:new 0 0 24 24;" xml:space="preserve">
<path id="Combined_Shape" d="M2.7,20.8c-1,0-1.9-0.8-1.9-1.9V5c0-1,0.9-1.9,1.9-1.9h18.7c1,0,1.9,0.8,1.9,1.9v4.4h-4.7
	c-1.4,0-2.6,1.1-2.6,2.6s1.1,2.6,2.6,2.6h4.7V19c0,1-0.9,1.9-1.9,1.9L2.7,20.8z M16.9,12c0-0.9,0.7-1.6,1.6-1.6
	c0.9,0,1.6,0.7,1.6,1.6s-0.7,1.6-1.6,1.6c0,0,0,0,0,0C17.6,13.6,16.9,12.9,16.9,12z"/>
</svg>
