<?xml version="1.0" encoding="utf-8"?>
<!-- Generator: Adobe Illustrator 24.1.1, SVG Export Plug-In . SVG Version: 6.00 Build 0)  -->
<svg version="1.1" id="Layer_1" xmlns="http://www.w3.org/2000/svg" xmlns:xlink="http://www.w3.org/1999/xlink" x="0px" y="0px"
	 viewBox="0 0 24 24" style="enable-background:new 0 0 24 24;" xml:space="preserve">
<path d="M21.6,22.1H2.4c-1.1,0-2-0.9-2-2V7c0-1.1,0.9-2,2-2h5.8l1.9-2.8c0.1-0.1,0.3-0.2,0.4-0.2h5c0.2,0,0.3,0.1,0.4,0.2l1.9,2.8
	h3.8c1.1,0,2,0.9,2,2v13.1C23.6,21.2,22.7,22.1,21.6,22.1C21.6,22.1,21.6,22.1,21.6,22.1z M13,8c-3.1,0-5.5,2.5-5.5,5.5
	s2.5,5.5,5.5,5.5s5.5-2.5,5.5-5.5C18.5,10.5,16.1,8,13,8z M4.9,8.5c-0.6,0-1,0.5-1,1c0,0.6,0.5,1,1,1s1-0.5,1-1c0,0,0,0,0,0
	C5.9,8.9,5.5,8.5,4.9,8.5z M6.5,3.9H2.9v-1c0-0.3,0.2-0.5,0.5-0.5H6c0.3,0,0.5,0.2,0.5,0.5L6.5,3.9z"/>
</svg>
