<?xml version="1.0" encoding="utf-8"?>
<!-- Generator: Adobe Illustrator 24.1.1, SVG Export Plug-In . SVG Version: 6.00 Build 0)  -->
<svg version="1.1" id="Layer_1" xmlns="http://www.w3.org/2000/svg" xmlns:xlink="http://www.w3.org/1999/xlink" x="0px" y="0px"
	 viewBox="0 0 24 24" style="enable-background:new 0 0 24 24;" xml:space="preserve">
<path id="Calculator" d="M18.7,23.4H5.3c-1.1,0-1.9-0.9-1.9-1.9v-19c0-1.1,0.9-1.9,1.9-1.9h13.3c1.1,0,1.9,0.9,1.9,1.9v19
	C20.6,22.6,19.7,23.4,18.7,23.4z M10.9,18.8v2.1h2.1v-2.1H10.9z M6.6,18.8v2.1h2.1v-2.1H6.6z M14.9,18.7v2.1h2.9v-2.1H14.9z
	 M15.2,14.5v2.1h2.1v-2.1H15.2z M10.9,14.5v2.1h2.1v-2.1H10.9z M6.6,14.5v2.1h2.1v-2.1H6.6z M15.2,10.2v2.1h2.1v-2.1H15.2z
	 M10.9,10.2v2.1h2.1v-2.1H10.9z M6.6,10.2v2.1h2.1v-2.1H6.6z M6.5,2.7c-0.5,0-1,0.4-1,1v2.6c0,0.5,0.4,1,1,1h10.9c0.5,0,1-0.4,1-1
	V3.7c0-0.5-0.4-1-1-1H6.5z"/>
</svg>
